<svg width="57" height="57" viewBox="0 0 57 57" fill="none" xmlns="http://www.w3.org/2000/svg">
<path d="M7.125 12.4688C6.14531 12.4688 5.34375 13.2703 5.34375 14.25V16.7104L24.5479 32.4744C26.8523 34.367 30.1588 34.367 32.4633 32.4744L51.6562 16.7104V14.25C51.6562 13.2703 50.8547 12.4688 49.875 12.4688H7.125ZM5.34375 23.6238V42.75C5.34375 43.7297 6.14531 44.5312 7.125 44.5312H49.875C50.8547 44.5312 51.6562 43.7297 51.6562 42.75V23.6238L35.8477 36.6047C31.5727 40.1115 25.4162 40.1115 21.1523 36.6047L5.34375 23.6238ZM0 14.25C0 10.3201 3.19512 7.125 7.125 7.125H49.875C53.8049 7.125 57 10.3201 57 14.25V42.75C57 46.6799 53.8049 49.875 49.875 49.875H7.125C3.19512 49.875 0 46.6799 0 42.75V14.25Z" fill="#457B9D"/>
</svg>
