<svg width="63" height="63" viewBox="0 0 63 63" fill="none" xmlns="http://www.w3.org/2000/svg">
<path d="M27.5043 15.1487L17.8134 3.96252C16.6962 2.67346 14.6481 2.67919 13.3504 3.97971L5.38113 11.9633C3.00926 14.338 2.33035 17.8643 3.70249 20.6917C11.8998 37.6642 25.588 51.3716 42.5491 59.5927C45.3736 60.9649 48.897 60.2859 51.2689 57.9112L59.3126 49.8531C60.616 48.5498 60.6189 46.4901 59.3184 45.3729L48.0892 35.7336C46.9147 34.7253 45.09 34.857 43.9126 36.0373L40.0054 39.9503C39.8053 40.1599 39.542 40.2981 39.2558 40.3437C38.9697 40.3892 38.6765 40.3396 38.4212 40.2024C32.0345 36.5245 26.7366 31.2197 23.0671 24.8281C22.9296 24.5725 22.8799 24.2788 22.9254 23.9921C22.971 23.7055 23.1093 23.4417 23.3192 23.2412L27.215 19.3425C28.3952 18.1565 28.5241 16.3232 27.5043 15.1459V15.1487Z" stroke="#457B9D" stroke-width="5" stroke-linecap="round" stroke-linejoin="round"/>
</svg>
