<svg id="visual" viewBox="0 0 1600 410" width="1600" height="410" xmlns="http://www.w3.org/2000/svg" xmlns:xlink="http://www.w3.org/1999/xlink" version="1.1"><path d="M0 313L38.2 317.3C76.3 321.7 152.7 330.3 228.8 310.8C305 291.3 381 243.7 457.2 243C533.3 242.3 609.7 288.7 685.8 293.7C762 298.7 838 262.3 914.2 266.3C990.3 270.3 1066.7 314.7 1142.8 319.3C1219 324 1295 289 1371.2 281.2C1447.3 273.3 1523.7 292.7 1561.8 302.3L1600 312L1600 411L1561.8 411C1523.7 411 1447.3 411 1371.2 411C1295 411 1219 411 1142.8 411C1066.7 411 990.3 411 914.2 411C838 411 762 411 685.8 411C609.7 411 533.3 411 457.2 411C381 411 305 411 228.8 411C152.7 411 76.3 411 38.2 411L0 411Z" fill="#DEF2E9" stroke-linecap="round" stroke-linejoin="miter"></path></svg>