<svg width="553" height="387" viewBox="0 0 553 387" fill="none" xmlns="http://www.w3.org/2000/svg">
<g filter="url(#filter0_d_157_238)">
<path d="M284.031 359.083L520.723 219.193C528.258 214.957 534.717 208.014 527.375 203.46L289.842 66.5657C286.281 64.3575 280.871 62.9084 277.241 65.02L28.8191 209.215C21.2837 213.59 19.9311 225.777 27.439 230.193L252.841 358.834C257.57 361.583 262.933 363.052 268.403 363.095C273.873 363.139 279.259 361.756 284.031 359.083V359.083Z" fill="#F1FAEE"/>
</g>
<path style="mix-blend-mode:multiply" d="M181.088 269.057L143.466 289.939C143.466 289.939 178.618 317.651 194.392 324.331L232.056 301.904" fill="url(#paint0_linear_157_238)"/>
<path style="mix-blend-mode:multiply" d="M179.556 185.574L141.934 206.455C141.934 206.455 150.946 220.712 166.776 227.336L207.435 204.909" fill="url(#paint1_linear_157_238)"/>
<path style="mix-blend-mode:multiply" d="M383.055 267.912C383.055 267.912 428.53 242.449 428.806 242.021L358.158 206.455L318.424 229.393L383.055 267.912Z" fill="url(#paint2_linear_157_238)"/>
<path d="M435.224 163.933L492.913 199.692C493.442 200.019 493.876 200.478 494.174 201.024C494.471 201.57 494.621 202.184 494.608 202.805C494.596 203.427 494.421 204.034 494.102 204.568C493.783 205.101 493.33 205.543 492.789 205.848L405.234 255.325C404.017 256.026 402.636 256.395 401.232 256.395C399.827 256.395 398.446 256.026 397.229 255.325L339.802 221.567C335.662 218.145 336.794 213.066 339.802 211.41L426.847 163.823C428.122 163.08 429.575 162.699 431.051 162.718C432.526 162.738 433.969 163.158 435.224 163.933V163.933Z" fill="#68E1FD"/>
<path d="M435.224 161.477L492.913 197.236C493.442 197.562 493.877 198.021 494.174 198.567C494.471 199.113 494.621 199.727 494.608 200.349C494.596 200.97 494.421 201.578 494.102 202.111C493.783 202.645 493.331 203.086 492.789 203.391L405.248 252.91C404.03 253.611 402.65 253.98 401.245 253.98C399.841 253.98 398.46 253.611 397.243 252.91L339.816 219.152C339.143 218.761 338.584 218.201 338.196 217.526C337.807 216.852 337.603 216.087 337.603 215.308C337.603 214.53 337.807 213.765 338.196 213.091C338.584 212.416 339.143 211.855 339.816 211.465L426.86 161.422C428.129 160.673 429.577 160.284 431.05 160.293C432.523 160.303 433.965 160.712 435.224 161.477Z" fill="white"/>
<path d="M431.387 163.409L489.366 199.899L402.653 249.515L342.825 214.335L431.387 163.409Z" fill="#606060"/>
<path d="M368.936 234.347C370.072 234.347 370.993 233.915 370.993 233.381C370.993 232.848 370.072 232.415 368.936 232.415C367.801 232.415 366.88 232.848 366.88 233.381C366.88 233.915 367.801 234.347 368.936 234.347Z" fill="#383097"/>
<path style="mix-blend-mode:multiply" d="M433.526 223.886C433.526 223.886 441.076 209.85 441.117 209.781L439.82 209.132L423.783 218.393L433.526 223.886Z" fill="url(#paint3_linear_157_238)"/>
<path d="M501.332 172.117C501.312 172.017 501.312 171.914 501.332 171.814C500.544 171.402 499.696 171.118 498.82 170.972L444.995 203.101C444.995 203.101 441.765 205.627 447.755 209.036L502.394 176.561C502.342 175.024 501.98 173.513 501.332 172.117V172.117Z" fill="#CCCCCC"/>
<path d="M444.885 203.087C444.885 203.087 438.619 210.098 438.508 210.554C438.398 211.009 447.576 209.022 447.576 209.022" fill="#CCCCCC"/>
<path d="M502.197 176.572C503.187 176.001 503.252 174.258 502.341 172.681C501.43 171.103 499.889 170.288 498.899 170.859C497.908 171.431 497.844 173.173 498.755 174.751C499.666 176.329 501.207 177.144 502.197 176.572Z" fill="#F2F2F2"/>
<path d="M229.323 158.275L251.93 169.164C252.779 169.575 253.501 170.209 254.018 170.998C254.535 171.787 254.828 172.702 254.864 173.645C254.901 174.588 254.681 175.523 254.227 176.35C253.774 177.178 253.103 177.866 252.289 178.342L198.698 209.602C197.54 210.277 196.165 210.478 194.862 210.165C193.558 209.851 192.426 209.046 191.701 207.918L178.687 187.699" fill="#1D3557"/>
<path d="M106.313 105.913L286.64 2.03112C287.877 1.3154 289.28 0.938375 290.709 0.93805C292.138 0.937724 293.542 1.31411 294.779 2.02927C296.017 2.74442 297.043 3.77308 297.756 5.01155C298.469 6.25002 298.843 7.65454 298.84 9.08355V117.147C298.839 118.333 298.526 119.499 297.933 120.526C297.339 121.553 296.486 122.406 295.459 122.999L103.249 233.947C102.586 234.33 101.833 234.531 101.067 234.531C100.301 234.531 99.549 234.329 98.8859 233.946C98.2228 233.562 97.6723 233.011 97.2899 232.348C96.9074 231.684 96.7065 230.931 96.7073 230.165V122.516C96.712 119.149 97.602 115.843 99.2879 112.929C100.974 110.015 103.397 107.595 106.313 105.913Z" fill="#8BC6C9"/>
<path d="M286.612 10.2014L111.778 110.799C109.91 111.874 108.359 113.422 107.281 115.288C106.203 117.154 105.636 119.271 105.636 121.426V202.439C105.639 203.213 105.844 203.974 106.231 204.645C106.619 205.315 107.176 205.872 107.846 206.261C108.517 206.649 109.277 206.855 110.052 206.857C110.826 206.86 111.588 206.659 112.261 206.275L290.573 103.953C291.239 103.572 291.793 103.021 292.178 102.357C292.564 101.693 292.767 100.939 292.767 100.172V13.8036C292.765 13.0834 292.574 12.3764 292.215 11.7523C291.856 11.1282 291.34 10.6087 290.718 10.245C290.097 9.88122 289.391 9.6859 288.671 9.67827C287.951 9.67064 287.241 9.85097 286.612 10.2014V10.2014Z" fill="white"/>
<path d="M217.582 159.415C218.036 157.058 216.736 154.825 214.677 154.429C212.619 154.032 210.582 155.622 210.128 157.98C209.674 160.338 210.975 162.57 213.033 162.967C215.092 163.363 217.128 161.773 217.582 159.415Z" fill="#AB643C"/>
<path d="M295.5 204.992L342.673 231.946C343.166 232.23 343.575 232.64 343.86 233.133C344.144 233.626 344.294 234.185 344.294 234.754C344.294 235.324 344.144 235.883 343.86 236.376C343.575 236.869 343.166 237.278 342.673 237.563L211.644 312.945C210.055 313.861 208.254 314.343 206.42 314.343C204.587 314.343 202.785 313.861 201.197 312.945L157.033 287.454C156.52 287.157 156.094 286.731 155.798 286.217C155.502 285.703 155.346 285.121 155.346 284.528C155.346 283.936 155.502 283.353 155.798 282.84C156.094 282.326 156.52 281.9 157.033 281.603L289.607 205.02C290.5 204.495 291.515 204.217 292.55 204.212C293.585 204.207 294.603 204.476 295.5 204.992V204.992Z" fill="#1D3557"/>
<path d="M224.217 247.969L237.687 255.946L227.695 261.756C224.935 260.114 216.792 255.339 214.184 253.807L224.217 247.969Z" fill="white"/>
<path d="M238.97 239.398L252.44 247.376L239.784 254.732C237.576 253.448 229.42 248.631 226.273 246.782L238.97 239.398Z" fill="white"/>
<path d="M292.574 208.277L306.251 216.13L294.079 223.196C292.146 222.078 283.893 217.206 280.567 215.246L292.574 208.277Z" fill="white"/>
<path d="M263.757 224.962L277.227 232.939L267.235 238.736C264.875 237.356 256.746 232.567 253.724 230.786L263.757 224.962Z" fill="white"/>
<path d="M278.511 216.433L291.981 224.41L279.27 231.766C277.779 230.911 269.305 225.915 265.758 223.817L278.511 216.433Z" fill="white"/>
<path d="M212.127 254.994L225.597 262.971L216.033 268.491C213.162 266.808 205.075 262.046 202.522 260.542L212.127 254.994Z" fill="white"/>
<path d="M251.668 232.029L265.138 240.006L254.552 246.147C252.068 244.767 243.967 239.923 241.041 238.198L251.668 232.029Z" fill="white"/>
<path d="M200.465 261.77L213.935 269.747L201.279 277.103C198.629 275.558 190.556 270.796 187.768 269.154L200.465 261.77Z" fill="white"/>
<path d="M185.697 270.341L199.167 278.318L176.464 291.498L162.774 283.645L185.697 270.341Z" fill="white"/>
<path d="M308.004 218.462L321.681 226.315L304.002 236.583C301.683 235.203 293.554 230.441 290.49 228.633L308.004 218.462Z" fill="white"/>
<path d="M273.667 238.391L287.137 246.368L277.144 252.178C274.467 250.619 266.393 245.857 263.633 244.229L273.667 238.391Z" fill="white"/>
<path d="M248.907 252.786L262.377 260.763L249.722 268.119C247.182 266.642 239.095 261.867 236.21 260.169L248.907 252.786Z" fill="white"/>
<path d="M261.577 245.416L275.047 253.393L264.461 259.534C261.701 257.92 253.6 253.144 250.95 251.585L261.577 245.416Z" fill="white"/>
<path d="M234.126 261.356L247.596 269.333L237.604 275.144C234.513 273.336 226.384 268.533 224.093 267.194L234.126 261.356Z" fill="white"/>
<path d="M222.036 268.381L235.506 276.358L225.942 281.879C222.796 280.043 214.653 275.226 212.431 273.929L222.036 268.381Z" fill="white"/>
<path d="M288.42 229.82L301.89 237.797L289.235 245.14C287.233 243.98 278.994 239.122 275.723 237.19L288.42 229.82Z" fill="white"/>
<path d="M210.374 275.157L223.844 283.135L211.188 290.491C208.263 288.779 200.147 284.004 197.677 282.541L210.374 275.157Z" fill="white"/>
<path d="M209.077 291.705L191.88 301.683L178.203 293.83L195.607 283.714L209.077 291.705Z" fill="white"/>
<path d="M219.152 290.339L229.172 296.287L217.551 303.008L207.38 297.17L219.152 290.339Z" fill="white"/>
<path d="M215.149 304.402L205.268 310.13L195.082 304.306L205.143 298.468L215.149 304.402Z" fill="white"/>
<path d="M324.869 228.937L335.358 234.747L323.461 241.648L313.165 235.727L324.869 228.937Z" fill="white"/>
<path d="M310.944 237.025L321.06 243.028L308.363 250.398L298.081 244.491L310.944 237.025Z" fill="white"/>
<path d="M295.846 245.788L305.948 251.792L231.587 294.879L221.388 289.028L295.846 245.788Z" fill="white"/>
<path style="mix-blend-mode:multiply" d="M329.037 118.693L309.716 130.107C309.716 130.107 315.678 140.568 330.418 146.751L352.858 134.689" fill="url(#paint4_linear_157_238)"/>
<path d="M344.702 135.627C354.572 135.627 362.574 129.992 362.574 123.04C362.574 116.089 354.572 110.454 344.702 110.454C334.831 110.454 326.829 116.089 326.829 123.04C326.829 129.992 334.831 135.627 344.702 135.627Z" fill="#A8DADC"/>
<path d="M344.715 121.081C352.109 121.081 358.102 118.627 358.102 115.601C358.102 112.575 352.109 110.122 344.715 110.122C337.322 110.122 331.328 112.575 331.328 115.601C331.328 118.627 337.322 121.081 344.715 121.081Z" fill="#974C26"/>
<path d="M345.599 115.726C346.647 114.249 347.71 112.703 348.814 110.964C350.194 108.742 351.575 106.479 352.775 104.133C353.904 102.058 354.869 99.8988 355.66 97.6736C356.539 95.2567 357.245 92.7799 357.771 90.2624C357.909 89.5999 358.02 88.8822 358.144 88.275C358.144 87.9714 358.144 87.999 358.144 88.0404C358.144 88.0818 358.144 87.8334 358.144 87.4607C358.268 86.0806 358.351 84.7005 358.365 83.4032C358.426 78.7096 357.519 74.0537 355.701 69.7261C350.869 76.7343 347.611 84.7052 346.151 93.0916C346.059 93.5885 345.971 94.0899 345.888 94.596C345.888 94.596 345.75 95.5068 345.695 95.8795L345.557 97.1354C345.493 97.7702 345.433 98.4097 345.378 99.0537C345.185 101.524 345.088 103.995 345.102 106.465C345.212 109.556 345.35 112.648 345.599 115.726ZM351.285 78.7935C351.607 78.4255 351.943 78.0667 352.292 77.717C352.221 78.0352 352.221 78.365 352.292 78.6831C351.957 78.6653 351.621 78.7026 351.299 78.7935H351.285Z" fill="#999A1C"/>
<path d="M345.943 115.933C346.04 114.125 346.081 112.248 346.068 110.191C346.068 107.555 345.943 104.933 345.709 102.311C345.539 99.9542 345.183 97.6146 344.646 95.3136C344.082 92.8026 343.34 90.3351 342.424 87.93C342.176 87.2951 341.927 86.6741 341.651 86.053C341.527 85.7632 341.555 85.7908 341.582 85.8322L341.306 85.3215C340.671 84.1208 340.023 82.9339 339.305 81.7884C336.813 77.801 333.524 74.371 329.644 71.7135C329.364 80.229 330.932 88.7041 334.24 96.5557C334.433 97.025 334.631 97.485 334.833 97.9359L335.372 99.1228L335.938 100.268C336.223 100.839 336.517 101.409 336.821 101.98C337.994 104.16 339.25 106.286 340.589 108.37C342.272 110.978 344.067 113.49 345.943 115.933ZM330.762 81.7884C330.836 81.3008 330.923 80.8407 331.024 80.4083C331.117 80.7199 331.277 81.0073 331.494 81.2502C331.223 81.3965 330.977 81.5826 330.762 81.8022V81.7884Z" fill="#999A1C"/>
<path d="M346.026 116.899C345.488 115.891 344.908 114.87 344.246 113.752C343.39 112.372 342.479 110.992 341.486 109.612C340.62 108.397 339.66 107.253 338.615 106.189C337.498 105.014 336.299 103.921 335.027 102.918L334.061 102.131C333.895 102.021 333.923 102.021 333.95 102.035L333.633 101.842C332.901 101.4 332.17 100.972 331.411 100.586C328.785 99.2364 325.91 98.4424 322.964 98.2533C325.561 102.934 329.139 106.997 333.453 110.164L334.226 110.73L334.889 111.199L335.565 111.627L336.6 112.262C337.934 113.062 339.314 113.807 340.74 114.497C342.438 115.394 344.218 116.181 346.026 116.899ZM326.815 103.374C326.695 103.088 326.585 102.798 326.484 102.504C326.634 102.643 326.813 102.747 327.008 102.808C326.915 102.985 326.85 103.176 326.815 103.374V103.374Z" fill="#999A1C"/>
<path d="M345.599 115.726C346.647 114.249 347.71 112.703 348.814 110.964C350.194 108.742 351.575 106.479 352.775 104.133C353.904 102.058 354.869 99.8988 355.66 97.6736C356.539 95.2567 357.245 92.7799 357.771 90.2624C357.909 89.5999 358.02 88.8822 358.144 88.275C358.144 87.9714 358.144 87.999 358.144 88.0404C358.144 88.0818 358.144 87.8334 358.144 87.4607C358.268 86.0806 358.351 84.7005 358.365 83.4032C358.426 78.7096 357.519 74.0537 355.701 69.7261C350.869 76.7343 347.611 84.7052 346.151 93.0916C346.059 93.5885 345.971 94.0899 345.888 94.596C345.888 94.596 345.75 95.5068 345.695 95.8795L345.557 97.1354C345.493 97.7702 345.433 98.4097 345.378 99.0537C345.185 101.524 345.088 103.995 345.102 106.465C345.212 109.556 345.35 112.648 345.599 115.726ZM351.285 78.7935C351.607 78.4255 351.943 78.0667 352.292 77.717C352.221 78.0352 352.221 78.365 352.292 78.6831C351.957 78.6653 351.621 78.7026 351.299 78.7935H351.285Z" fill="#999A1C"/>
<path d="M345.943 115.933C346.04 114.125 346.081 112.248 346.068 110.191C346.068 107.555 345.943 104.933 345.709 102.311C345.539 99.9542 345.183 97.6146 344.646 95.3136C344.082 92.8026 343.34 90.3351 342.424 87.93C342.176 87.2951 341.927 86.6741 341.651 86.053C341.527 85.7632 341.555 85.7908 341.582 85.8322L341.306 85.3215C340.671 84.1208 340.023 82.9339 339.305 81.7884C336.813 77.801 333.524 74.371 329.644 71.7135C329.364 80.229 330.932 88.7041 334.24 96.5557C334.433 97.025 334.631 97.485 334.833 97.9359L335.372 99.1228L335.938 100.268C336.223 100.839 336.517 101.409 336.821 101.98C337.994 104.16 339.25 106.286 340.589 108.37C342.272 110.978 344.067 113.49 345.943 115.933ZM330.762 81.7884C330.836 81.3008 330.923 80.8407 331.024 80.4083C331.117 80.7199 331.277 81.0073 331.494 81.2502C331.223 81.3965 330.977 81.5826 330.762 81.8022V81.7884Z" fill="#999A1C"/>
<path d="M346.026 116.899C345.488 115.891 344.908 114.87 344.246 113.752C343.39 112.372 342.479 110.992 341.486 109.612C340.62 108.397 339.66 107.253 338.615 106.189C337.498 105.014 336.299 103.921 335.027 102.918L334.061 102.131C333.895 102.021 333.923 102.021 333.95 102.035L333.633 101.842C332.901 101.4 332.17 100.972 331.411 100.586C328.785 99.2364 325.91 98.4424 322.964 98.2533C325.561 102.934 329.139 106.997 333.453 110.164L334.226 110.73L334.889 111.199L335.565 111.627L336.6 112.262C337.934 113.062 339.314 113.807 340.74 114.497C342.438 115.394 344.218 116.181 346.026 116.899ZM326.815 103.374C326.695 103.088 326.585 102.798 326.484 102.504C326.634 102.643 326.813 102.747 327.008 102.808C326.915 102.985 326.85 103.176 326.815 103.374V103.374Z" fill="#999A1C"/>
<path d="M143.632 170.834L207.38 136.924L169.123 100.392L143.632 170.834Z" fill="#E63946"/>
<path d="M257.05 90.704C270.45 90.704 281.313 79.8413 281.313 66.4415C281.313 53.0416 270.45 42.1789 257.05 42.1789C243.65 42.1789 232.788 53.0416 232.788 66.4415C232.788 79.8413 243.65 90.704 257.05 90.704Z" fill="#A8DADC"/>
<path d="M130.217 123.151C126.353 120.942 122.875 126.905 126.739 129.113C138.732 136.013 129.127 151.029 120.197 155.335C116.195 157.254 119.687 163.216 123.675 161.297C137.614 154.576 146.778 132.494 130.217 123.151Z" fill="#457B9D"/>
<path d="M240.627 106.272C236.956 89.1169 213.866 99.6472 217.882 115.201C219.621 121.936 226.963 125.856 233.312 122.516C236.087 120.924 238.289 118.497 239.603 115.58C240.916 112.662 241.275 109.405 240.627 106.272V106.272ZM233.974 110.578C233.828 111.852 233.363 113.068 232.623 114.115C231.882 115.162 230.89 116.005 229.737 116.568C224.465 118.583 224.59 111.889 225.887 108.687C228.206 102.752 235.106 103.512 233.947 110.633L233.974 110.578Z" fill="#56403D"/>
<path d="M229.945 326.719C230.086 325.826 230.444 324.982 230.988 324.26C231.532 323.538 232.245 322.961 233.064 322.578L243.07 316.81L258.527 307.853L276.993 297.157L296.646 285.784L315.65 274.743L332.212 265.179L344.426 258.113L350.843 254.4C350.843 254.538 351.064 254.538 351.202 254.497C351.964 254.311 352.761 254.325 353.517 254.536C354.272 254.748 354.96 255.15 355.515 255.705C356.069 256.26 356.472 256.948 356.683 257.703C356.895 258.458 356.909 259.255 356.723 260.017C355.977 262.916 353.507 265.469 351.202 267.236C343.73 272.6 335.931 277.496 327.851 281.892V279.008C333.288 276.027 345.019 269.347 349.932 264.241L347.586 265.621L341.127 269.402L331.397 275.088L319.252 282.182L305.493 290.284L291.056 298.716L276.758 307.066L263.454 314.85L252.04 321.571L243.249 326.705C240.572 328.278 237.66 330.404 234.54 331.011C233.952 331.053 233.361 330.973 232.804 330.776C232.248 330.579 231.738 330.269 231.307 329.866C230.876 329.464 230.532 328.976 230.298 328.435C230.063 327.893 229.943 327.309 229.945 326.719V326.719Z" fill="#A8DADC"/>
<path style="mix-blend-mode:multiply" d="M308.169 179.556L287.55 191.839C287.55 191.839 301.089 204.813 316.864 211.451L336.034 198.933" fill="url(#paint5_linear_157_238)"/>
<path d="M306.196 170.793V180.44L335.993 198.892L371.766 177.031V168.805" fill="#E54C3C"/>
<path d="M371.766 168.805L341.389 150.629L306.196 170.793L336.573 189.245L371.766 168.805Z" fill="#E63946"/>
<defs>
<filter id="filter0_d_157_238" x="-4.75301" y="47.6741" width="562.551" height="353.494" filterUnits="userSpaceOnUse" color-interpolation-filters="sRGB">
<feFlood flood-opacity="0" result="BackgroundImageFix"/>
<feColorMatrix in="SourceAlpha" type="matrix" values="0 0 0 0 0 0 0 0 0 0 0 0 0 0 0 0 0 0 127 0" result="hardAlpha"/>
<feOffset dy="10.8778"/>
<feGaussianBlur stdDeviation="13.5973"/>
<feComposite in2="hardAlpha" operator="out"/>
<feColorMatrix type="matrix" values="0 0 0 0 0 0 0 0 0 0 0 0 0 0 0 0 0 0 0.07 0"/>
<feBlend mode="normal" in2="BackgroundImageFix" result="effect1_dropShadow_157_238"/>
<feBlend mode="normal" in="SourceGraphic" in2="effect1_dropShadow_157_238" result="shape"/>
</filter>
<linearGradient id="paint0_linear_157_238" x1="225.349" y1="265.303" x2="172.255" y2="308.515" gradientUnits="userSpaceOnUse">
<stop stop-color="#D4A397"/>
<stop offset="1" stop-color="white"/>
</linearGradient>
<linearGradient id="paint1_linear_157_238" x1="9919.87" y1="6502.15" x2="8566.6" y2="8229.74" gradientUnits="userSpaceOnUse">
<stop stop-color="#D4A397"/>
<stop offset="1" stop-color="white"/>
</linearGradient>
<linearGradient id="paint2_linear_157_238" x1="389.5" y1="212.307" x2="362.546" y2="252.013" gradientUnits="userSpaceOnUse">
<stop offset="0.01" stop-color="#4D4D4D"/>
<stop offset="1" stop-color="white"/>
</linearGradient>
<linearGradient id="paint3_linear_157_238" x1="5922.93" y1="2730.8" x2="5835.19" y2="2882.69" gradientUnits="userSpaceOnUse">
<stop offset="0.01" stop-color="#4D4D4D"/>
<stop offset="1" stop-color="white"/>
</linearGradient>
<linearGradient id="paint4_linear_157_238" x1="342.121" y1="120.597" x2="322.785" y2="141.782" gradientUnits="userSpaceOnUse">
<stop stop-color="#78B46A"/>
<stop offset="0.03" stop-color="#7F3500"/>
<stop offset="1" stop-color="white"/>
</linearGradient>
<linearGradient id="paint5_linear_157_238" x1="11937.7" y1="4980.66" x2="11274.4" y2="5801.63" gradientUnits="userSpaceOnUse">
<stop stop-color="#D4A397"/>
<stop offset="1" stop-color="white"/>
</linearGradient>
</defs>
</svg>
